<svg height="300" width="300" xmlns="http://www.w3.org/2000/svg" viewBox="0 0 100 100"><path fill="#FF0000" d="M50.171 6.288c11.637 8.013 30.191 11.898 38.101 13.26.301 2.772.455 5.527.455 8.223 0 27.634-14.728 52.93-38.612 66.642C26.229 80.697 11.5 55.402 11.5 27.771c0-2.669.154-5.403.455-8.17 8.076-1.283 26.991-5.033 38.216-13.313M50.039 0C38.216 11.699 7.588 15.281 7.588 15.281a81.926 81.926 0 00-.98 12.49c0 31.327 17.64 58.512 43.506 72.229 25.87-13.718 43.504-40.902 43.504-72.229 0-4.25-.346-8.412-.973-12.49.001 0-29.823-3.941-42.606-15.281z"/><path fill="#FF0000" d="M20.738 26.015a56.643 56.643 0 00-.677 8.638c0 21.633 12.19 40.407 30.053 49.882 17.864-9.476 30.052-28.249 30.052-49.882a57.68 57.68 0 00-.674-8.638S58.89 23.296 50.06 15.464c-8.168 8.078-29.322 10.551-29.322 10.551z"/></svg>
